<svg width="18px" height="14px" viewBox="0 0 18 14"><path d="M1.000,-0.000 L17.000,-0.000 C17.552,-0.000 18.000,0.448 18.000,1.000 C18.000,1.552 17.552,2.000 17.000,2.000 L1.000,2.000 C0.448,2.000 0.000,1.552 0.000,1.000 C0.000,0.448 0.448,-0.000 1.000,-0.000 Z"/><path d="M1.000,6.000 L17.000,6.000 C17.552,6.000 18.000,6.448 18.000,7.000 C18.000,7.552 17.552,8.000 17.000,8.000 L1.000,8.000 C0.448,8.000 0.000,7.552 0.000,7.000 C0.000,6.448 0.448,6.000 1.000,6.000 Z"/><path d="M1.000,12.000 L17.000,12.000 C17.552,12.000 18.000,12.448 18.000,13.000 C18.000,13.552 17.552,14.000 17.000,14.000 L1.000,14.000 C0.448,14.000 0.000,13.552 0.000,13.000 C0.000,12.448 0.448,12.000 1.000,12.000 Z"/></svg>
