<svg xmlns="http://www.w3.org/2000/svg" xmlns:xlink="http://www.w3.org/1999/xlink"><defs>
<filter id="Filter_0">
    <feFlood flood-color="rgb(0, 206, 185)" flood-opacity="1" result="floodOut"/>
    <feComposite operator="atop" in="floodOut" in2="SourceGraphic" result="compOut"/>
    <feBlend mode="normal" in="compOut" in2="SourceGraphic"/>
</filter>


<filter id="Filter_0">
    <feFlood flood-color="rgb(0, 206, 185)" flood-opacity="1" result="floodOut"/>
    <feComposite operator="atop" in="floodOut" in2="SourceGraphic" result="compOut"/>
    <feBlend mode="normal" in="compOut" in2="SourceGraphic"/>
</filter>

</defs><symbol id="icon-mail">

<g filter="url(#Filter_0)">
<path fill-rule="evenodd" fill="rgb(102, 102, 102)" d="M13.999,11.420 C15.096,11.420 15.993,10.617 15.993,9.628 L15.993,2.245 C15.993,1.258 15.100,0.453 13.999,0.453 L1.993,0.453 C0.896,0.453 -0.000,1.255 -0.000,2.245 L-0.000,9.628 C-0.000,10.614 0.892,11.420 1.993,11.420 L13.999,11.420 ZM2.037,2.947 C1.828,2.788 1.804,2.511 1.981,2.324 C2.157,2.137 2.465,2.115 2.673,2.273 L7.996,6.341 L13.323,2.277 C13.531,2.119 13.839,2.144 14.015,2.328 C14.192,2.515 14.164,2.792 13.959,2.951 L10.157,5.851 L13.975,9.084 C14.172,9.249 14.184,9.530 13.995,9.707 C13.899,9.800 13.767,9.847 13.639,9.847 C13.519,9.847 13.399,9.807 13.303,9.728 L9.401,6.427 L8.312,7.259 C8.220,7.328 8.108,7.363 7.996,7.363 C7.884,7.363 7.772,7.328 7.680,7.259 L6.591,6.427 L2.689,9.728 C2.593,9.807 2.473,9.847 2.353,9.847 C2.221,9.847 2.093,9.800 1.996,9.707 C1.813,9.530 1.820,9.249 2.017,9.084 L5.835,5.851 L2.037,2.947 Z"/>
</g>
</symbol><symbol id="icon-phone">

<g filter="url(#Filter_0)">
<path fill-rule="evenodd" fill="rgb(102, 102, 102)" d="M12.994,10.675 C12.626,11.877 11.247,12.750 9.717,12.749 C9.567,12.749 9.416,12.740 9.269,12.724 C7.409,12.479 5.232,11.308 3.441,9.591 C1.556,7.939 0.279,5.944 0.027,4.253 C-0.229,2.541 0.607,1.265 2.262,0.838 C2.347,0.816 2.437,0.805 2.530,0.805 C3.499,0.805 4.654,2.060 5.055,2.961 C5.316,3.547 5.296,3.999 4.998,4.267 C4.248,4.940 3.969,5.350 4.001,5.727 C4.038,6.148 4.465,6.634 5.190,7.331 C5.283,7.420 5.406,7.539 5.546,7.667 C5.676,7.785 5.800,7.895 5.910,7.991 C6.721,8.700 7.249,9.083 7.724,9.083 C8.120,9.083 8.548,8.827 9.253,8.168 C9.359,8.068 9.556,7.949 9.888,7.949 C10.762,7.949 11.996,8.731 12.600,9.461 C12.966,9.904 13.102,10.323 12.994,10.675 Z"/>
</g>
</symbol></svg>